<svg xmlns="http://www.w3.org/2000/svg" version="1.1" xmlns:xlink="http://www.w3.org/1999/xlink" xmlns:svgjs="http://svgjs.com/svgjs" width="512" height="512" x="0" y="0" viewBox="0 0 16.933 16.933" style="enable-background:new 0 0 512 512" xml:space="preserve" class=""><circle r="8.4665" cx="8.4665" cy="8.4665" fill="#514156" shape="circle"></circle><g transform="matrix(0.7,0,0,0.7,2.5399498343467712,2.5399498522281654)"><path fill="#dbe9ee" d="M16.14 3.968H.794V15.61c0 .293.236.53.529.53H15.61c.294 0 .53-.237.53-.53z" data-original="#dbe9ee" class=""></path><path fill="#4844a3" d="M1.323.793a.528.528 0 0 0-.53.53v2.645H16.14V1.323a.528.528 0 0 0-.53-.53z" data-original="#33658a" class=""></path><g fill="#5b91b8"><path d="M2.91 2.38a.53.53 0 0 1-.529.53.53.53 0 0 1-.529-.53.53.53 0 0 1 .53-.528.53.53 0 0 1 .528.529zM5.027 2.38a.53.53 0 0 1-.53.53.53.53 0 0 1-.528-.53.53.53 0 0 1 .529-.528.53.53 0 0 1 .53.529zM7.144 2.38a.53.53 0 0 1-.53.53.53.53 0 0 1-.529-.53.53.53 0 0 1 .53-.528.53.53 0 0 1 .529.529z" fill="#5b91b8" data-original="#5b91b8"></path></g><path fill="#dbe9ee" d="M9.79 1.852h5.291V2.91H9.79z" data-original="#dbe9ee" class=""></path><path fill="#c93db8" d="M2.381 5.556h12.171v6.88H2.382z" data-original="#ff6b6b" class=""></path><path fill="#dbe9ee" d="m7.408 10.318 2.117-1.323-2.117-1.322z" data-original="#dbe9ee" class=""></path><path d="M1.322.529a.797.797 0 0 0-.793.793v14.287c0 .435.358.795.793.795h14.29c.435 0 .792-.36.792-.795V1.322a.796.796 0 0 0-.793-.793zm0 .529h14.29c.15 0 .263.112.263.264v2.38H1.059v-2.38c0-.152.112-.264.263-.264zm1.059.53a.796.796 0 0 0-.793.792c0 .436.357.793.793.793s.795-.357.795-.793-.36-.793-.795-.793zm2.117 0a.796.796 0 0 0-.793.792c0 .436.358.793.793.793a.796.796 0 0 0 .793-.793.797.797 0 0 0-.793-.793zm2.117 0c-.435 0-.795.357-.795.792s.36.793.795.793c.435 0 .793-.357.793-.793s-.358-.793-.793-.793zm3.162 0a.266.266 0 0 0-.251.263V2.91c0 .145.118.263.263.263h5.293a.265.265 0 0 0 .264-.263V1.85a.265.265 0 0 0-.264-.263zm-7.396.529c.149 0 .265.114.265.263s-.116.266-.265.266c-.15 0-.264-.116-.264-.266s.114-.263.264-.263zm2.117 0c.15 0 .263.114.263.263s-.114.266-.263.266a.262.262 0 0 1-.266-.266.26.26 0 0 1 .266-.263zm2.117 0c.15 0 .264.114.264.263 0 .15-.115.266-.264.266S6.35 2.53 6.35 2.38s.117-.263.266-.263zm3.44 0h4.761v.529h-4.761zM1.059 4.232h14.816v11.377a.259.259 0 0 1-.264.266H1.322a.259.259 0 0 1-.263-.266zm1.323 1.06a.265.265 0 0 0-.266.263v6.881c0 .146.12.264.266.264h12.17a.265.265 0 0 0 .265-.264V5.555a.265.265 0 0 0-.265-.264zm.263.529h11.643v6.35H2.645zm4.752 1.587a.265.265 0 0 0-.254.264v2.647c0 .208.229.334.405.224L9.665 9.22a.265.265 0 0 0 0-.447L7.548 7.448a.265.265 0 0 0-.15-.04zm.275.741 1.356.848-1.356.845zm-2.65 5.076a.265.265 0 0 0-.26.267v.266H2.368c-.353 0-.353.53 0 .53h2.394v.263c-.008.36.538.36.53 0v-1.059a.265.265 0 0 0-.27-.267zm1.063 1.063h8.467c.36.008.36-.538 0-.53h-8.48c-.357.025-.332.538.013.53z" fill="#000000" data-original="#000000" class=""></path></g></svg>