<svg xmlns="http://www.w3.org/2000/svg" version="1.1" xmlns:xlink="http://www.w3.org/1999/xlink" xmlns:svgjs="http://svgjs.com/svgjs" width="512" height="512" x="0" y="0" viewBox="0 0 512 512" style="enable-background:new 0 0 512 512" xml:space="preserve" class=""><circle r="256" cx="256" cy="256" fill="#514156" shape="circle"></circle><g transform="matrix(0.7,0,0,0.7,76.80000000000001,76.80000000000001)"><path d="M337.039 402.192h-162.08V149.784c0-22.08 17.899-39.978 39.978-39.978h82.123c22.08 0 39.978 17.899 39.978 39.978v252.408z" style="" fill="#4844a3" data-original="#cee8fa" class=""></path><path d="M349.92 415.073H162.079V149.784c0-29.146 23.712-52.858 52.859-52.858h82.123c29.146 0 52.859 23.712 52.859 52.858v265.289zm-162.08-25.761h136.318V149.784c0-14.941-12.157-27.097-27.098-27.097h-82.123c-14.941 0-27.098 12.157-27.098 27.097l.001 239.528z" style="" fill="#c93db8" data-original="#2d527c" class=""></path><path d="M511.999 415.073h-187.84V198.681h134.982c29.146 0 52.859 23.712 52.859 52.858h-25.761c0-14.941-12.157-27.097-27.098-27.097H349.92v164.87h136.318v-69.274h25.761v95.035zM187.84 415.073H0V225.779c0-29.146 23.712-52.858 52.859-52.858h134.982v242.153h-.001v-.001zM25.761 389.312h136.318V198.681H52.859c-14.941 0-27.098 12.157-27.098 27.097v163.534zM287.456 267.525v20.043h-60.13v-20.043h19.765v-35.493c-.835 1.113-2.136 2.252-3.896 3.409-1.765 1.162-3.737 2.227-5.916 3.201a43.869 43.869 0 0 1-6.681 2.366c-2.275.604-4.293.904-6.055.904v-20.6c1.483 0 3.409-.509 5.776-1.53a53.548 53.548 0 0 0 7.03-3.689c2.318-1.437 4.406-2.899 6.264-4.385 1.855-1.484 3.014-2.691 3.479-3.619h22.688v59.433h17.677v.003z" style="" fill="#c93db8" data-original="#2d527c" class=""></path><path d="M59.262 355.241c0-4.36.323-8.258.974-11.692.648-3.433 1.762-6.564 3.341-9.395 1.577-2.829 3.71-5.45 6.403-7.863 2.691-2.413 6.077-4.777 10.161-7.098a1280.73 1280.73 0 0 1 10.927-5.984c2.923-1.577 5.241-2.969 6.959-4.176 1.717-1.206 2.944-2.297 3.689-3.272.742-.974 1.113-2.11 1.113-3.409 0-2.597-.929-4.685-2.783-6.264-1.857-1.577-4.502-2.366-7.934-2.366-3.896 0-7.285.952-10.16 2.853-2.878 1.904-5.661 4.385-8.352 7.447l-14.197-16.424c1.484-1.671 3.48-3.292 5.986-4.871 2.505-1.577 5.335-2.992 8.491-4.245 3.153-1.253 6.612-2.249 10.369-2.992 3.759-.742 7.677-1.114 11.761-1.114 10.022 0 17.699 2.182 23.035 6.542 5.335 4.363 8.004 10.254 8.004 17.677 0 3.062-.487 5.8-1.462 8.213-.974 2.414-2.252 4.571-3.828 6.472a29.954 29.954 0 0 1-5.289 5.01 69.766 69.766 0 0 1-5.984 3.967 277.41 277.41 0 0 1-5.012 2.924 235.554 235.554 0 0 0-5.776 3.409 87.576 87.576 0 0 0-5.289 3.48c-1.624 1.161-2.853 2.205-3.689 3.131h37.86v20.043H59.262v-.003zM432.09 312.056c2.527.489 4.853 1.368 6.975 2.63a19.815 19.815 0 0 1 5.446 4.772c1.508 1.918 2.671 4.12 3.488 6.608.814 2.49 1.224 5.16 1.224 8.016 0 3.836-.777 7.28-2.325 10.339-1.551 3.059-3.774 5.669-6.67 7.831-2.897 2.16-6.384 3.833-10.463 5.017-4.079 1.181-8.647 1.774-13.705 1.774-12.401 0-22.108-3.631-29.123-10.89l10.523-13.95c2.203 2.284 4.71 4.019 7.525 5.2 2.814 1.184 6.179 1.775 10.094 1.775 9.217 0 13.827-3.384 13.827-10.156 0-3.671-1.368-6.443-4.1-8.321-2.734-1.875-7.035-2.814-12.909-2.814h-3.671v-14.072h4.038c4.567 0 8.138-.938 10.708-2.814 2.57-1.875 3.855-4.363 3.855-7.464 0-2.692-.939-4.73-2.814-6.118-1.878-1.386-4.365-2.08-7.464-2.08-3.346 0-6.385.796-9.117 2.387-2.734 1.591-5.038 3.855-6.913 6.791l-12.359-14.194c1.303-1.713 3.017-3.304 5.139-4.772 2.12-1.468 4.527-2.71 7.22-3.731 2.692-1.019 5.586-1.815 8.688-2.387a52.75 52.75 0 0 1 9.544-.857c4.323 0 8.278.51 11.869 1.53 3.589 1.021 6.648 2.49 9.177 4.405 2.527 1.918 4.485 4.203 5.874 6.852 1.386 2.652 2.08 5.609 2.08 8.872 0 2.447-.388 4.772-1.163 6.975a21.33 21.33 0 0 1-3.242 5.996 18.475 18.475 0 0 1-4.956 4.466c-1.916 1.181-4.018 1.975-6.3 2.384z" style="" fill="#c93db8" data-original="#2d527c" class=""></path></g></svg>